<svg xmlns="http://www.w3.org/2000/svg" version="1.1" xmlns:xlink="http://www.w3.org/1999/xlink" xmlns:svgjs="http://svgjs.dev/svgjs" width="2960" height="1120" preserveAspectRatio="none" viewBox="0 0 2960 1120"><g mask="url(&quot;#SvgjsMask1122&quot;)" fill="none"><rect width="2960" height="1120" x="0" y="0" fill="rgba(45, 22, 44, 1)"></rect><path d="M627.26 1333.68C1056.21 1294.81 1340.86 405.21 2077.23 403.2 2813.6 401.19 3150.22 813.56 3527.2 817.6" stroke="rgba(104, 58, 104, 1)" stroke-width="2"></path><path d="M438.65 1292.58C842.4 1268.82 1143.5 527.78 1863.64 526.66 2583.79 525.54 2921.98 871.37 3288.64 873.86" stroke="rgba(104, 58, 104, 1)" stroke-width="2"></path><path d="M1217.04 1120.67C1532.16 1087.21 1726.91 405.63 2261.8 402.92 2796.69 400.21 3037.55 658.63 3306.56 660.52" stroke="rgba(104, 58, 104, 1)" stroke-width="2"></path><path d="M333.97 1204.97C718.5 1194.93 999.84 659.29 1765.57 641.05 2531.29 622.81 2815.92 122.9 3197.16 114.65" stroke="rgba(104, 58, 104, 1)" stroke-width="2"></path><path d="M1505.64 1188.68C1761.76 1174.65 1917.51 731.7 2415.04 713.6 2912.57 695.5 3082.13 382.92 3324.44 377.6" stroke="rgba(104, 58, 104, 1)" stroke-width="2"></path></g><defs><mask id="SvgjsMask1122"><rect width="2960" height="1120" fill="#ffffff"></rect></mask></defs></svg>