<svg xmlns="http://www.w3.org/2000/svg" version="1.1" xmlns:xlink="http://www.w3.org/1999/xlink" xmlns:svgjs="http://svgjs.dev/svgjs" width="2960" height="1120" preserveAspectRatio="none" viewBox="0 0 2960 1120"><g mask="url(&quot;#SvgjsMask1208&quot;)" fill="none"><rect width="2960" height="1120" x="0" y="0" fill="rgba(45, 22, 44, 1)"></rect><path d="M851.01 1219.27C1074.99 1211.6 1258.3 861.6 1672.79 861.12 2087.28 860.64 2083.68 1001.12 2494.57 1001.12 2905.46 1001.12 3107.95 861.62 3316.35 861.12" stroke="rgba(104, 58, 104, 1)" stroke-width="2"></path><path d="M1384.87 1226.29C1634.09 1161.56 1558.38 478.64 2092.87 478.24 2627.36 477.84 3133.19 974.8 3508.87 982.24" stroke="rgba(104, 58, 104, 1)" stroke-width="2"></path><path d="M253.7 1135.32C555.01 1092.79 710.01 393.78 1213.33 386.54 1716.65 379.3 1693.14 526.54 2172.96 526.54 2652.77 526.54 2890.14 386.91 3132.59 386.54" stroke="rgba(104, 58, 104, 1)" stroke-width="2"></path><path d="M1404.78 1141.15C1671.18 1013.33 1552.62 156.16 2052.85 152.77 2553.08 149.38 3000.43 658.64 3349 667.97" stroke="rgba(104, 58, 104, 1)" stroke-width="2"></path><path d="M455.53 1303.25C878.22 1261.83 1151.76 366.02 1871.1 363.95 2590.44 361.88 2917.16 784.98 3286.67 789.55" stroke="rgba(104, 58, 104, 1)" stroke-width="2"></path></g><defs><mask id="SvgjsMask1208"><rect width="2960" height="1120" fill="#ffffff"></rect></mask></defs></svg>