<svg xmlns="http://www.w3.org/2000/svg" version="1.1" xmlns:xlink="http://www.w3.org/1999/xlink" xmlns:svgjs="http://svgjs.dev/svgjs" width="2960" height="1120" preserveAspectRatio="none" viewBox="0 0 2960 1120"><g mask="url(&quot;#SvgjsMask1234&quot;)" fill="none"><rect width="2960" height="1120" x="0" y="0" fill="rgba(45, 22, 44, 1)"></rect><path d="M1171.04 1132.46C1412.43 1082.05 1301.24 476.38 1888.8 455.86 2476.36 435.34 2959.2 188.21 3324.31 187.06" stroke="rgba(104, 58, 104, 1)" stroke-width="2"></path><path d="M1226.46 1234.39C1477.96 1132.46 1376.59 360.13 1867.08 358.1 2357.57 356.07 2806.22 831.83 3148.32 839.7" stroke="rgba(104, 58, 104, 1)" stroke-width="2"></path><path d="M734.34 1236.98C986.34 1210.24 1138.3 666.67 1569.93 663.15 2001.55 659.63 1987.72 803.15 2405.51 803.15 2823.31 803.15 3029.29 663.63 3241.1 663.15" stroke="rgba(104, 58, 104, 1)" stroke-width="2"></path><path d="M1289.04 1336.92C1655.05 1255.07 1810.82 292.4 2362.49 288.91 2914.17 285.42 3136.18 811.76 3435.95 826.51" stroke="rgba(104, 58, 104, 1)" stroke-width="2"></path><path d="M486.62 1224.58C771.51 1175.32 899.38 479.92 1364.03 471.17 1828.68 462.42 1802.73 611.17 2241.43 611.17 2680.14 611.17 2896.71 471.61 3118.84 471.17" stroke="rgba(104, 58, 104, 1)" stroke-width="2"></path></g><defs><mask id="SvgjsMask1234"><rect width="2960" height="1120" fill="#ffffff"></rect></mask></defs></svg>