<svg xmlns="http://www.w3.org/2000/svg" version="1.1" xmlns:xlink="http://www.w3.org/1999/xlink" xmlns:svgjs="http://svgjs.dev/svgjs" width="2960" height="1120" preserveAspectRatio="none" viewBox="0 0 2960 1120"><g mask="url(&quot;#SvgjsMask1102&quot;)" fill="none"><rect width="2960" height="1120" x="0" y="0" fill="rgba(45, 22, 44, 1)"></rect><path d="M1237.67 1225.89C1499.1 1206.44 1682.46 693.49 2140.42 692.37 2598.39 691.25 2810.65 914.71 3043.18 916.37" stroke="rgba(104, 58, 104, 1)" stroke-width="2"></path><path d="M1006.25 1315.54C1224.72 1310 1411.11 998.48 1820.78 998.22 2230.45 997.96 2228.04 1138.22 2635.3 1138.22 3042.57 1138.22 3243.21 998.73 3449.83 998.22" stroke="rgba(104, 58, 104, 1)" stroke-width="2"></path><path d="M792.4 1188.25C1019.58 1173.56 1182.78 745.74 1587.53 744.38 1992.29 743.02 1985.1 884.38 2382.67 884.38 2780.23 884.38 2975.96 744.91 3177.8 744.38" stroke="rgba(104, 58, 104, 1)" stroke-width="2"></path><path d="M1921.98 1134.12C2194.38 1060.89 2299.7 308.57 2689.88 307.45 3080.06 306.33 3223.39 829.02 3457.78 856.25" stroke="rgba(104, 58, 104, 1)" stroke-width="2"></path><path d="M1532.09 1197.76C1793.19 1147.91 1855.92 527.09 2321.9 485.91 2787.88 444.73 2901.31 199.3 3111.71 194.71" stroke="rgba(104, 58, 104, 1)" stroke-width="2"></path></g><defs><mask id="SvgjsMask1102"><rect width="2960" height="1120" fill="#ffffff"></rect></mask></defs></svg>