<svg xmlns="http://www.w3.org/2000/svg" version="1.1" xmlns:xlink="http://www.w3.org/1999/xlink" xmlns:svgjs="http://svgjs.dev/svgjs" width="2960" height="1120" preserveAspectRatio="none" viewBox="0 0 2960 1120"><g mask="url(&quot;#SvgjsMask1221&quot;)" fill="none"><rect width="2960" height="1120" x="0" y="0" fill="rgba(45, 22, 44, 1)"></rect><path d="M1842.47 1152.38C2125.15 1069.84 2213.09 277.78 2624.35 271.34 3035.62 264.9 3190.22 631.79 3406.24 640.94" stroke="rgba(104, 58, 104, 1)" stroke-width="2"></path><path d="M715.03 1155.3C984.22 1115.08 1118.9 481.03 1564.66 474.56 2010.42 468.09 1989.48 614.56 2414.3 614.56 2839.11 614.56 3048.66 475.03 3263.93 474.56" stroke="rgba(104, 58, 104, 1)" stroke-width="2"></path><path d="M1370.1 1179.33C1628.17 1142.36 1704.15 579.73 2190.11 535.08 2676.07 490.43 2780.72 132.23 3010.12 120.68" stroke="rgba(104, 58, 104, 1)" stroke-width="2"></path><path d="M428.87 1305.09C680.96 1288.37 860.06 810.47 1309.11 808.69 1758.15 806.91 1749.22 948.69 2189.34 948.69 2629.46 948.69 2846.76 809.13 3069.58 808.69" stroke="rgba(104, 58, 104, 1)" stroke-width="2"></path><path d="M701.36 1230.56C955.96 1189.53 1077.56 578.16 1495 571.63 1912.44 565.1 1891.82 711.63 2288.64 711.63 2685.46 711.63 2880.81 572.16 3082.28 571.63" stroke="rgba(104, 58, 104, 1)" stroke-width="2"></path></g><defs><mask id="SvgjsMask1221"><rect width="2960" height="1120" fill="#ffffff"></rect></mask></defs></svg>