<svg xmlns="http://www.w3.org/2000/svg" version="1.1" xmlns:xlink="http://www.w3.org/1999/xlink" xmlns:svgjs="http://svgjs.dev/svgjs" width="2960" height="1120" preserveAspectRatio="none" viewBox="0 0 2960 1120"><g mask="url(&quot;#SvgjsMask1128&quot;)" fill="none"><rect width="2960" height="1120" x="0" y="0" fill="rgba(45, 22, 44, 1)"></rect><path d="M1071.51 1133.98C1474.7 1063.02 1676.76 64.78 2309.34 61.93 2941.93 59.08 3208.89 598.61 3547.18 610.73" stroke="rgba(104, 58, 104, 1)" stroke-width="2"></path><path d="M1147.1 1147.69C1442.09 1141.43 1669.6 753.49 2255.75 742.91 2841.9 732.33 3073.15 388.93 3364.4 384.51" stroke="rgba(104, 58, 104, 1)" stroke-width="2"></path><path d="M1144.05 1154.1C1443.51 1116.48 1618.26 438.26 2114.48 435.94 2610.7 433.62 2830.82 734.86 3084.91 738.34" stroke="rgba(104, 58, 104, 1)" stroke-width="2"></path><path d="M737.22 1229.67C1103.16 1211.64 1345.13 590.59 2047.46 573.07 2749.78 555.55 3018.11 217.88 3357.69 214.67" stroke="rgba(104, 58, 104, 1)" stroke-width="2"></path><path d="M299.36 1262.89C690.7 1244.13 992.89 568.12 1703.43 566.8 2413.98 565.48 2750.63 823.34 3107.51 824.4" stroke="rgba(104, 58, 104, 1)" stroke-width="2"></path></g><defs><mask id="SvgjsMask1128"><rect width="2960" height="1120" fill="#ffffff"></rect></mask></defs></svg>